<svg width="32" height="32" viewBox="0 0 32 32" fill="none" xmlns="http://www.w3.org/2000/svg">
<g id="logo" clip-path="url(#clip0_667_680)">
<path id="Vector" d="M16 25.7812C17.1132 25.7812 18.0156 24.8788 18.0156 23.7656C18.0156 22.6524 17.1132 21.75 16 21.75C14.8868 21.75 13.9844 22.6524 13.9844 23.7656C13.9844 24.8788 14.8868 25.7812 16 25.7812Z" fill="white"/>
<path id="Subtract" fill-rule="evenodd" clip-rule="evenodd" d="M16.1008 31.5305C24.632 31.4767 31.5314 24.5436 31.5314 15.9999C31.5314 7.42236 24.5777 0.468613 16.0002 0.469238H15.8995C13.8485 0.495256 11.891 1.33171 10.4546 2.79598C9.01809 4.26024 8.2193 6.23337 8.23259 8.28455C8.24587 10.3357 9.07017 12.2983 10.5255 13.7439C11.9808 15.1894 13.9489 16.0004 16.0002 15.9999C18.0514 15.9993 20.0195 16.8103 21.4749 18.2559C22.9302 19.7014 23.7545 21.664 23.7678 23.7152C23.7811 25.7664 22.9823 27.7395 21.5458 29.2038C20.1093 30.668 18.1519 31.5045 16.1008 31.5305ZM18.0156 8.23438C18.0156 9.34757 17.1132 10.25 16 10.25C14.8868 10.25 13.9844 9.34757 13.9844 8.23438C13.9844 7.12118 14.8868 6.21875 16 6.21875C17.1132 6.21875 18.0156 7.12118 18.0156 8.23438Z" fill="white"/>
<path id="Vector_2" d="M15.9997 21.2812C15.5083 21.2812 15.028 21.4269 14.6194 21.6999C14.2109 21.9729 13.8925 22.3609 13.7044 22.8148C13.5164 23.2688 13.4672 23.7683 13.563 24.2502C13.6589 24.7321 13.8955 25.1748 14.243 25.5223C14.5904 25.8697 15.0331 26.1063 15.515 26.2022C15.9969 26.298 16.4964 26.2488 16.9504 26.0608C17.4044 25.8728 17.7924 25.5543 18.0654 25.1458C18.3383 24.7372 18.4841 24.2569 18.4841 23.7655C18.4834 23.1069 18.2214 22.4753 17.7557 22.0096C17.2899 21.5438 16.6584 21.2818 15.9997 21.2812ZM15.9997 25.3124C15.6937 25.3124 15.3947 25.2217 15.1403 25.0517C14.8859 24.8818 14.6876 24.6402 14.5706 24.3575C14.4535 24.0749 14.4228 23.7638 14.4825 23.4638C14.5422 23.1637 14.6895 22.8881 14.9059 22.6717C15.1222 22.4554 15.3978 22.3081 15.6979 22.2484C15.998 22.1887 16.309 22.2193 16.5916 22.3364C16.8743 22.4535 17.1159 22.6518 17.2859 22.9062C17.4558 23.1605 17.5466 23.4596 17.5466 23.7655C17.5462 24.1757 17.3831 24.569 17.0931 24.859C16.8031 25.149 16.4098 25.3121 15.9997 25.3124ZM27.3122 4.68742C24.2971 1.75924 20.251 0.134995 16.0481 0.165711C11.8453 0.196427 7.82327 1.87963 4.85133 4.85158C1.87939 7.82352 0.196183 11.8455 0.165467 16.0484C0.134751 20.2512 1.75899 24.2974 4.68718 27.3124C7.70224 30.2406 11.7484 31.8649 15.9513 31.8341C20.1541 31.8034 24.1761 30.1202 27.148 27.1483C30.12 24.1763 31.8032 20.1543 31.8339 15.9515C31.8646 11.7486 30.2404 7.70249 27.3122 4.68742ZM15.9997 31.0624C12.4642 31.0588 9.04262 29.8122 6.33345 27.5407C3.62429 25.2691 1.80008 22.1173 1.17997 18.6367C0.559864 15.156 1.18334 11.5682 2.94134 8.5008C4.69933 5.43341 7.47989 3.08181 10.7966 1.85742C9.8496 2.62824 9.08623 3.60032 8.5619 4.70303C8.03757 5.80574 7.76545 7.0114 7.76531 8.23242C7.76531 12.773 11.4591 16.4668 15.9997 16.4668C17.9352 16.4668 19.7914 17.2357 21.16 18.6043C22.5286 19.9729 23.2975 21.8291 23.2975 23.7646C23.2975 25.7001 22.5286 27.5563 21.16 28.9249C19.7914 30.2935 17.9352 31.0624 15.9997 31.0624ZM26.6503 26.6505C25.1098 28.1966 23.2508 29.3882 21.2028 30.1424C22.1498 29.3716 22.9131 28.3995 23.4375 27.2968C23.9618 26.1941 24.2339 24.9884 24.2341 23.7674C24.2341 19.2268 20.5403 15.533 15.9997 15.533C14.0642 15.533 12.208 14.7642 10.8393 13.3956C9.47074 12.027 8.70187 10.1707 8.70187 8.23524C8.70187 6.29974 9.47074 4.44351 10.8393 3.0749C12.208 1.7063 14.0642 0.937424 15.9997 0.937424C18.9787 0.937492 21.8908 1.82093 24.3678 3.47602C26.8447 5.13112 28.7753 7.48353 29.9153 10.2358C31.0553 12.9881 31.3536 16.0166 30.7724 18.9384C30.1913 21.8602 28.7568 24.544 26.6503 26.6505ZM15.9997 5.74992C15.5083 5.74992 15.028 5.89563 14.6194 6.16862C14.2109 6.4416 13.8925 6.82961 13.7044 7.28357C13.5164 7.73753 13.4672 8.23706 13.563 8.71898C13.6589 9.2009 13.8955 9.64357 14.243 9.99102C14.5904 10.3385 15.0331 10.5751 15.515 10.6709C15.9969 10.7668 16.4964 10.7176 16.9504 10.5296C17.4044 10.3415 17.7924 10.0231 18.0654 9.61454C18.3383 9.20599 18.4841 8.72566 18.4841 8.2343C18.4834 7.57561 18.2214 6.94408 17.7557 6.47831C17.2899 6.01254 16.6584 5.75059 15.9997 5.74992ZM15.9997 9.78117C15.6937 9.78117 15.3947 9.69045 15.1403 9.52048C14.8859 9.35051 14.6876 9.10892 14.5706 8.82626C14.4535 8.54361 14.4228 8.23258 14.4825 7.93252C14.5422 7.63245 14.6895 7.35683 14.9059 7.14049C15.1222 6.92416 15.3978 6.77683 15.6979 6.71715C15.998 6.65746 16.309 6.68809 16.5916 6.80517C16.8743 6.92225 17.1159 7.12052 17.2859 7.3749C17.4558 7.62928 17.5466 7.92836 17.5466 8.2343C17.5462 8.64445 17.3831 9.03772 17.0931 9.32774C16.8031 9.61776 16.4098 9.78084 15.9997 9.78117Z" fill="white"/>
</g>
<defs>
<clipPath id="clip0_667_680">
<rect width="32" height="32" fill="white"/>
</clipPath>
</defs>
</svg>
